<?xml version="1.0" encoding="utf-8"?>
<!-- Generator: Adobe Illustrator 27.4.1, SVG Export Plug-In . SVG Version: 6.00 Build 0)  -->
<svg version="1.1" id="Layer_1" xmlns="http://www.w3.org/2000/svg" xmlns:xlink="http://www.w3.org/1999/xlink" x="0px" y="0px"
	 viewBox="0 0 1280 1024" style="enable-background:new 0 0 1280 1024;" xml:space="preserve">
<style type="text/css">
	.st0{fill:none;stroke:#FFFFFF;stroke-width:39.3871;stroke-miterlimit:10;}
	.st1{fill:none;stroke:#FFFFFF;stroke-width:42;stroke-linecap:round;stroke-miterlimit:10;}
	.st2{fill:none;stroke:#FFFFFF;stroke-width:32;stroke-linecap:round;stroke-miterlimit:10;}
	.st3{fill:#FFFFFF;stroke:#FFFFFF;stroke-width:26.9367;stroke-linecap:round;stroke-miterlimit:10;}
</style>
<path class="st0" d="M965.9,849.9H314.1c-6.6,0-12-5.4-12-12V186.1c0-6.6,5.4-12,12-12h651.8c6.6,0,12,5.4,12,12v651.8
	C977.9,844.5,972.5,849.9,965.9,849.9z"/>
<path class="st1" d="M753.7,425V279.1c0-12.4-11.9-22.4-26.5-22.4H552.8c-14.7,0-26.5,10-26.5,22.4v465.8
	c0,12.4,11.9,22.4,26.5,22.4h174.4c14.7,0,26.5-10,26.5-22.4V612.1"/>
<line class="st2" x1="656.1" y1="512" x2="903.5" y2="512"/>
<path class="st3" d="M920.2,523.5l-100.4,58c-8,4.6-16.2-5.8-9.7-12.4l56.5-58.6L812.1,455c-6.5-6.6,1.6-17.2,9.7-12.5l98.5,56.9
	C929.5,504.7,929.5,518.1,920.2,523.5z"/>
</svg>
